<?xml version="1.0" standalone="no"?>
<!DOCTYPE svg PUBLIC "-//W3C//DTD SVG 20010904//EN"
 "http://www.w3.org/TR/2001/REC-SVG-20010904/DTD/svg10.dtd">
<svg version="1.0" xmlns="http://www.w3.org/2000/svg"
 width="16.000000pt" height="16.000000pt" viewBox="0 0 16.000000 16.000000"
 preserveAspectRatio="xMidYMid meet">
<metadata>
Created by potrace 1.11, written by Peter Selinger 2001-2013
</metadata>
<g transform="translate(0.000000,16.000000) scale(0.002667,-0.002667)"
fill="#000000" stroke="none">
<path d="M4699 5749 c-85 -89 -172 -181 -194 -204 -39 -40 -339 -356 -400
-420 -16 -18 -95 -101 -175 -185 -80 -84 -165 -174 -190 -200 -25 -26 -112
-118 -195 -205 -82 -86 -167 -176 -189 -199 -21 -22 -109 -115 -196 -206 -86
-91 -174 -183 -194 -205 -21 -22 -108 -114 -194 -204 -201 -209 -205 -214
-220 -275 -7 -28 -14 -58 -16 -66 -2 -8 -27 -105 -56 -215 -28 -110 -64 -249
-80 -310 -16 -60 -54 -209 -85 -330 -31 -121 -60 -234 -66 -251 -5 -17 -11
-40 -13 -51 -3 -11 -25 -100 -51 -199 -26 -98 -48 -186 -50 -194 -11 -51 -69
-266 -74 -271 -3 -4 -341 -10 -751 -13 -410 -3 -790 -7 -845 -10 -55 -3 -178
-7 -274 -11 -96 -3 -178 -8 -183 -11 -4 -3 -8 -243 -8 -535 0 -416 3 -529 13
-530 6 -1 21 -3 32 -4 11 -1 72 -5 135 -9 63 -4 135 -9 160 -11 77 -8 447 -24
685 -30 169 -5 929 -5 1075 0 212 6 486 16 530 20 25 2 101 7 170 10 69 4 141
8 160 10 19 1 80 6 135 9 55 4 111 9 125 11 14 2 70 7 125 11 55 3 108 8 117
9 9 2 48 6 85 10 37 3 127 13 198 21 72 8 148 17 170 19 22 3 56 7 75 10 19 2
55 7 80 11 25 3 54 7 65 9 87 11 151 19 155 20 8 2 93 16 120 20 14 2 68 11
120 20 52 9 108 18 123 21 24 4 252 49 297 59 89 20 286 67 292 71 4 3 16 7
26 9 35 6 198 58 262 82 239 92 331 183 259 259 -71 75 -352 162 -729 224
-175 29 -170 28 -225 35 -27 3 -57 7 -65 10 -8 2 -44 6 -80 10 -36 3 -76 7
-90 10 -13 2 -48 7 -79 10 -31 3 -78 7 -106 10 -27 3 -70 8 -95 10 -25 2 -65
7 -90 9 -25 3 -83 8 -130 11 -47 4 -103 8 -125 10 -22 3 -78 7 -125 10 -47 3
-112 8 -145 10 -145 11 -280 18 -540 31 -181 9 -247 12 -262 13 -8 1 -6 18 7
59 10 31 73 248 139 482 323 1135 327 1147 356 1182 26 30 137 154 210 233 17
18 59 66 95 106 36 40 72 80 80 89 8 9 51 56 95 105 44 49 87 96 95 105 20 21
164 180 230 255 30 33 72 80 94 104 97 106 136 150 187 206 30 34 92 103 139
154 47 52 93 103 103 115 16 18 61 67 195 215 13 14 40 44 60 66 21 22 73 81
117 130 44 50 83 92 86 95 3 3 45 50 95 105 49 55 91 102 94 105 3 3 13 15 23
26 18 21 16 23 -260 230 -152 115 -280 210 -283 212 -4 1 -76 -70 -161 -159z
m-2782 -4737 c-22 -25 -21 -34 6 -60 59 -56 196 -85 397 -86 257 0 428 50 430
127 0 17 3 16 41 -5 57 -32 69 -61 39 -93 -61 -65 -337 -127 -533 -119 -223 8
-431 64 -472 127 -15 24 -15 28 0 50 9 14 29 30 45 37 16 7 35 18 41 26 6 8
14 14 17 14 3 0 -2 -8 -11 -18z"/>
<path d="M5775 782 c-37 -31 -487 -175 -645 -207 -8 -2 -33 -8 -55 -14 -22 -6
-85 -20 -140 -31 -55 -12 -109 -23 -120 -26 -21 -4 -176 -34 -210 -40 -11 -2
-83 -14 -160 -27 -149 -26 -254 -43 -320 -52 -23 -3 -50 -7 -60 -9 -11 -2 -49
-7 -85 -11 -36 -4 -72 -9 -80 -10 -8 -2 -44 -6 -80 -10 -36 -3 -72 -8 -80 -10
-8 -2 -44 -7 -80 -10 -36 -4 -81 -8 -100 -10 -19 -2 -64 -7 -100 -10 -36 -4
-76 -8 -90 -10 -14 -2 -66 -7 -117 -10 -51 -3 -100 -8 -111 -10 -10 -1 -65 -6
-122 -10 -58 -3 -125 -8 -150 -10 -48 -4 -234 -15 -335 -20 -549 -26 -1491
-26 -1925 0 -36 2 -117 7 -180 10 -63 4 -133 8 -155 10 -22 1 -89 6 -150 10
-60 4 -113 9 -117 12 -5 2 -8 -59 -8 -136 l0 -141 2863 2 c2536 3 2862 5 2863
18 1 22 15 151 19 180 3 14 6 45 9 70 5 46 14 121 21 175 2 17 7 62 10 100 3
39 8 77 10 85 2 8 7 44 10 80 4 36 9 68 11 72 7 11 -29 10 -41 0z"/>
</g>
</svg>
