<?xml version="1.0" encoding="UTF-8" standalone="no"?>
<svg
   xmlns:dc="http://purl.org/dc/elements/1.1/"
   xmlns:cc="http://creativecommons.org/ns#"
   xmlns:rdf="http://www.w3.org/1999/02/22-rdf-syntax-ns#"
   xmlns:svg="http://www.w3.org/2000/svg"
   xmlns="http://www.w3.org/2000/svg"
   xmlns:sodipodi="http://sodipodi.sourceforge.net/DTD/sodipodi-0.dtd"
   xmlns:inkscape="http://www.inkscape.org/namespaces/inkscape"
   width="400"
   height="400"
   viewBox="0 0 400 400"
   version="1.1"
   id="svg12"
   sodipodi:docname="straw-android.svg"
   inkscape:version="0.92.0 r15299"
   inkscape:export-filename="\straw-android.png"
   inkscape:export-xdpi="144"
   inkscape:export-ydpi="144">
  <metadata
     id="metadata18">
    <rdf:RDF>
      <cc:Work
         rdf:about="">
        <dc:format>image/svg+xml</dc:format>
        <dc:type
           rdf:resource="http://purl.org/dc/dcmitype/StillImage" />
        <dc:title></dc:title>
      </cc:Work>
    </rdf:RDF>
  </metadata>
  <defs
     id="defs16">
    <clipPath
       clipPathUnits="userSpaceOnUse"
       id="clipPath45">
      <rect
         style="opacity:0.5;fill:#cccccc;fill-opacity:1;stroke:none;stroke-width:293.11572266;stroke-miterlimit:4;stroke-dasharray:none;stroke-dashoffset:0;stroke-opacity:1"
         id="rect47"
         width="400"
         height="400"
         x="0"
         y="0" />
    </clipPath>
    <clipPath
       clipPathUnits="userSpaceOnUse"
       id="clipPath82">
      <rect
         ry="24.152681"
         rx="24.152681"
         y="-27.705664"
         x="0"
         height="427.70566"
         width="427.70566"
         id="rect84"
         style="opacity:1;fill:#ffffff;fill-opacity:1;stroke:none;stroke-width:121.23940277;stroke-miterlimit:4;stroke-dasharray:none;stroke-dashoffset:0;stroke-opacity:1" />
    </clipPath>
    <filter
       inkscape:collect="always"
       style="color-interpolation-filters:sRGB"
       id="filter969"
       x="-0.024"
       width="1.048"
       y="-0.024"
       height="1.048">
      <feGaussianBlur
         inkscape:collect="always"
         stdDeviation="4"
         id="feGaussianBlur971" />
    </filter>
  </defs>
  <sodipodi:namedview
     pagecolor="#ffffff"
     bordercolor="#666666"
     borderopacity="1"
     objecttolerance="10"
     gridtolerance="10"
     guidetolerance="10"
     inkscape:pageopacity="0"
     inkscape:pageshadow="2"
     inkscape:window-width="1304"
     inkscape:window-height="745"
     id="namedview14"
     showgrid="false"
     inkscape:zoom="1.0182338"
     inkscape:cx="18.803894"
     inkscape:cy="200"
     inkscape:window-x="-8"
     inkscape:window-y="-8"
     inkscape:window-maximized="1"
     inkscape:current-layer="svg12" />
  <g
     id="g976"
     transform="matrix(0.9016033,0,0,0.9016033,19.679339,20.623947)">
    <rect
       style="opacity:0.35100002;fill:#000000;fill-opacity:1;stroke:none;stroke-width:113.38582611;stroke-miterlimit:4;stroke-dasharray:none;stroke-dashoffset:0;stroke-opacity:1;filter:url(#filter969)"
       id="rect90"
       width="400"
       height="400"
       x="0"
       y="9.6000004"
       rx="22.588133"
       ry="22.588133" />
    <rect
       ry="22.588133"
       rx="22.588133"
       y="0"
       x="0"
       height="400"
       width="400"
       id="rect78"
       style="opacity:1;fill:#ffffff;fill-opacity:1;stroke:none;stroke-width:113.38582611;stroke-miterlimit:4;stroke-dasharray:none;stroke-dashoffset:0;stroke-opacity:1" />
    <path
       transform="matrix(0.9352226,0,0,0.9352226,0,25.910962)"
       clip-path="url(#clipPath82)"
       style="fill:#e94b4b;stroke-width:3.30099487"
       inkscape:connector-curvature="0"
       id="path10"
       d="m 102.67766,1011.4314 h -1.31379 0.6569 C 5.2158,1011.362 -77.18034,996.6033 -109.46737,975.84995 l 39.56903,63.30975 14.44515,197.1321 c 0,0 157.70503,111.4218 313.61432,0 l 11.44124,-199.2777 34.09598,-55.77033 C 266.40702,999.11206 190.20023,1011.372 102.02077,1011.4347 Z M 316.39067,741.92825 c -6.88589,5.19905 -13.61659,9.23287 -20.17566,12.07172 -6.569,2.84877 -13.59682,4.2781 -21.09337,4.2781 -7.02782,0 -12.45795,-1.53827 -16.3003,-4.60818 -3.83578,-3.06664 -5.75693,-7.27869 -5.75693,-12.64941 v -1.23128 c 0,-0.37962 0.0462,-0.85494 0.14183,-1.39963 0.36639,-3.28118 1.80564,-7.07072 4.3012,-11.33891 2.49554,-4.27478 5.49945,-8.71132 9.0117,-13.30632 3.51227,-4.60487 7.25888,-9.25928 11.23659,-13.9665 3.97769,-4.70721 7.64841,-9.16356 11.03193,-13.39542 3.3703,-4.20549 6.16955,-8.06764 8.38782,-11.5799 2.22488,-3.50566 3.334,-6.35112 3.334,-8.54298 0,-1.3105 -0.46543,-2.35361 -1.38642,-3.12605 -0.92757,-0.75592 -2.45593,-1.14874 -4.57847,-1.14874 -3.70042,0 -7.51636,0.9606 -11.44456,2.87519 -3.93147,1.91456 -7.82004,4.49264 -11.65579,7.72432 -3.83578,3.23167 -7.5824,6.93208 -11.23661,11.08803 -3.6476,4.16587 -7.07403,8.49016 -10.26278,12.97951 -3.19207,4.49266 -6.10023,9.0117 -8.73443,13.55719 -2.63421,4.54546 -4.88218,8.73442 -6.73074,12.56689 l -2.36021,5.09344 c -1.02331,2.19186 -2.13243,4.66101 -3.33071,7.3942 -1.20155,2.73983 -2.47575,5.56549 -3.81265,8.45715 -1.34019,2.9082 -2.56487,5.64802 -3.674,8.21619 l -2.9742,6.90238 c -0.88796,2.02022 -1.50854,3.42315 -1.87496,4.19226 -0.46545,0.98701 -1.22468,2.84217 -2.2876,5.58198 -1.06291,2.73982 -2.28756,5.9451 -3.674,9.61251 l -4.37049,11.58649 c -1.52178,4.05032 -2.95771,7.88607 -4.30122,11.49737 -1.3402,3.61458 -2.52196,6.79344 -3.52877,9.53326 -1.02329,2.73323 -1.67359,4.59828 -1.95086,5.57869 -0.91771,2.84877 -2.00703,5.52915 -3.25148,8.05444 -1.25109,2.51534 -2.68042,4.73362 -4.30451,6.6548 -1.61419,1.91457 -3.46935,3.44953 -5.55228,4.59828 -2.08293,1.15865 -4.41674,1.72641 -7.00141,1.72641 -3.33399,0 -6.08042,-0.79883 -8.25909,-2.38662 -2.16546,-1.58446 -3.25478,-4.628 -3.25478,-9.11733 0,-2.19188 0.27728,-4.43985 0.83185,-6.73735 0.55788,-2.30078 1.25438,-4.57847 2.08623,-6.81655 0.83186,-2.25458 1.69011,-4.43983 2.56158,-6.56897 0.88136,-2.13576 1.6934,-4.19558 2.42293,-6.15966 4.99771,-10.95271 10.08453,-21.93842 15.2605,-32.94392 5.17594,-11.00553 10.14725,-21.9021 14.91389,-32.69306 0.9969,-2.25128 1.90138,-4.45634 2.86855,-6.69112 l -0.85826,0.85825 c -6.01441,5.81307 -11.99911,10.93291 -17.96069,15.36283 -5.97151,4.43654 -11.8902,7.96861 -17.75605,10.5995 -5.86919,2.62431 -11.5865,3.9381 -17.13218,3.9381 -3.78954,0 -6.95519,-0.60079 -9.49697,-1.80564 -2.54506,-1.20486 -4.57847,-2.84877 -6.10684,-4.9251 -1.52834,-2.08293 -2.61768,-4.54547 -3.26139,-7.39424 -0.21785,-0.97377 -0.35318,-1.99379 -0.49512,-3.0039 -1.62411,1.26429 -3.26138,2.49556 -4.91189,3.6608 -5.72723,4.05032 -11.37193,7.31171 -16.92421,9.77425 -5.54566,2.46255 -10.54008,3.69383 -14.976607,3.69383 -4.443142,0 -8.047814,-1.47556 -10.823966,-4.43654 -2.772831,-2.95439 -4.159256,-7.99501 -4.159256,-15.11196 0,-5.04062 0.74273,-10.90319 2.218269,-17.5811 -2.406416,4.27479 -5.410321,8.5991 -9.011714,12.9795 -3.611274,4.38374 -7.724323,8.38125 -12.345706,11.99912 -4.628006,3.6146 -9.807272,6.5426 -15.5378,8.78726 -5.737129,2.24798 -11.979293,3.37032 -18.726532,3.37032 -3.053432,0 -5.984705,-0.37631 -8.810364,-1.15205 -2.819036,-0.76253 -5.294782,-2.08294 -7.420637,-3.94138 -2.129136,-1.85518 -3.835748,-4.34742 -5.13304,-7.47678 -1.297292,-3.11943 -1.940988,-7.04102 -1.940988,-11.74824 0,-0.10875 0.184868,-1.77922 0.554562,-5.01749 0.366415,-3.23168 1.548169,-8.32181 3.535364,-15.28033 1.990515,-6.94859 5.063729,-15.9636 9.222985,-27.02854 4.165856,-11.06823 10.035025,-24.48018 17.620707,-40.24901 1.940988,-4.16585 4.185659,-7.14995 6.724136,-8.95561 2.545055,-1.80895 5.294782,-2.71342 8.252481,-2.71342 1.297292,0 2.637489,0.19469 4.023915,0.57437 1.393027,0.38622 2.680417,0.98371 3.888576,1.80895 1.198256,0.81866 2.172061,1.86177 2.914771,3.11945 0.736129,1.25767 1.109145,2.70682 1.109145,4.35071 0,1.09592 -0.141836,2.13905 -0.419222,3.11944 -0.46545,1.86836 -1.455756,4.30118 -2.9775,7.3117 -1.528368,3.01712 -3.307612,6.46665 -5.344311,10.35522 -2.030121,3.89188 -4.185661,8.07753 -6.446856,12.57678 -2.271076,4.48276 -4.370506,9.14708 -6.311493,13.95993 -1.940988,4.82274 -3.607994,9.72141 -4.994399,14.70592 -1.389726,4.98451 -2.175362,9.83367 -2.356929,14.53758 0,1.97399 0.458847,3.77964 1.386425,5.42352 0.920975,1.6439 2.449343,2.46255 4.578477,2.46255 6.007809,0 11.741638,-1.97399 17.201486,-5.91208 5.453247,-3.94468 10.490573,-8.84666 15.118558,-14.70593 4.621404,-5.85597 8.807063,-12.16087 12.553677,-18.89819 3.746634,-6.73733 6.866076,-12.89369 9.361625,-18.48558 1.759447,-3.72022 3.307613,-7.72432 4.647806,-11.99253 1.340205,-4.27476 2.799235,-8.21286 4.370515,-11.83074 1.57126,-3.6179 3.37032,-6.6284 5.41033,-9.03814 2.03011,-2.40642 4.57848,-3.61127 7.6286,-3.61127 3.33731,0 5.9682,1.26097 7.90918,3.77964 1.94099,2.52196 2.90818,5.53246 2.90818,9.03152 0,1.97399 -0.62058,4.68741 -1.86506,8.13694 -1.24449,3.44955 -2.81906,7.39424 -4.72372,11.83076 -1.89477,4.43654 -3.9513,9.17347 -6.16958,14.21079 -2.21826,5.04063 -4.28136,10.16047 -6.16955,15.36284 -1.89806,5.20237 -3.46603,10.2958 -4.71712,15.28029 -1.25108,4.9845 -1.86835,9.61252 -1.86835,13.88071 0,3.94467 2.03011,5.91866 6.10022,5.91866 2.86857,0 6.42705,-0.98699 10.68203,-2.95769 4.25498,-1.97068 8.71793,-4.74022 13.38554,-8.2987 1.16855,-0.89127 2.34041,-1.81884 3.50565,-2.79265 1.3072,-5.37731 2.82896,-10.3486 4.60818,-14.86768 3.23499,-8.54955 6.51947,-17.0331 9.85018,-25.46716 3.32739,-8.43735 6.37753,-16.16167 9.15036,-23.17629 l 42.02825,-105.97514 c 1.66371,-4.27148 3.90838,-7.28531 6.72414,-9.03812 2.82233,-1.74953 5.66779,-2.6276 8.53636,-2.6276 2.86198,0 5.47306,0.93088 7.83327,2.79264 2.36021,1.86508 3.53868,4.87558 3.53868,9.03814 0,1.9707 -0.39282,4.05361 -1.17847,6.24216 -0.78564,2.19517 -1.77922,4.54547 -2.98409,7.06745 -2.3074,5.14955 -5.06043,11.44783 -8.2525,18.89489 -3.19205,7.45035 -6.61518,15.55429 -10.26277,24.31843 -3.65091,8.76413 -7.39755,17.88148 -11.23331,27.35865 -3.83575,9.47716 -7.58239,18.70343 -11.23329,27.68213 -3.6476,8.98861 -7.07732,17.49856 -10.26278,25.54971 -3.19207,8.04782 -5.9385,15.03603 -8.2525,20.94811 -1.02331,2.52196 -2.01029,5.45325 -2.97749,8.79384 -0.97378,3.34062 -1.45574,6.32472 -1.45574,8.9556 0,1.63731 0.27728,2.95441 0.83186,3.93809 0.55457,0.98041 1.61749,1.48216 3.19206,1.48216 1.94428,0 4.36393,-0.68332 7.27869,-2.05653 2.91807,-1.36661 6.05401,-3.17887 9.43094,-5.42683 3.37692,-2.24797 6.89248,-4.81616 10.54007,-7.72434 3.65421,-2.90487 7.28531,-5.91206 10.89001,-9.0315 3.61126,-3.12274 7.05422,-6.25209 10.3354,-9.36823 3.28119,-3.11615 6.22238,-5.99131 8.81367,-8.62219 0.60736,-0.63051 1.33359,-1.07615 2.13243,-1.41613 1.56137,-4.66101 2.9841,-9.2329 4.24177,-13.69583 0.74273,-1.9773 1.75944,-4.76335 3.05673,-8.38123 1.29069,-3.62119 2.77283,-7.17638 4.43654,-10.68201 1.66371,-3.50236 3.53865,-6.54259 5.61498,-9.11736 2.08294,-2.57147 4.3276,-3.86216 6.73074,-3.86216 3.70041,0 6.38413,0.85166 8.04781,2.54507 1.66371,1.70331 2.49555,4.19227 2.49555,7.48335 0,0.65359 -0.0858,1.6967 -0.27727,3.11614 -0.18822,1.42273 -0.41263,2.93788 -0.6899,4.51906 -0.2773,1.58117 -0.58098,3.09632 -0.89788,4.51905 -0.33339,1.42604 -0.62059,2.45926 -0.89787,3.11615 3.41322,-3.72684 7.11365,-7.42064 11.09133,-11.08474 3.97771,-3.6674 8.09074,-6.98822 12.34243,-9.9426 4.25499,-2.9577 8.5991,-5.36411 13.04224,-7.23249 4.43983,-1.85845 8.87636,-2.78932 13.3129,-2.78932 3.05011,0 6.08045,0.43902 9.08435,1.31378 3.0039,0.87478 5.6975,2.16547 8.0478,3.85888 2.36024,1.70332 4.28139,3.83575 5.75696,6.40722 1.47223,2.57146 2.21827,5.55887 2.21827,8.95559 0,4.49266 -1.13225,9.28241 -3.39672,14.37585 -2.26451,5.09343 -5.10666,10.21327 -8.52978,15.35292 -3.41983,5.15615 -7.12024,10.16045 -11.09135,15.03934 -3.97769,4.87555 -7.69791,9.30549 -11.16728,13.303 -3.47262,4.00741 -6.38742,7.39424 -8.74103,10.19017 -2.3536,2.79923 -3.58487,4.68741 -3.67399,5.67441 0,1.31051 0.41922,2.38003 1.25108,3.20527 0.83183,0.81865 2.21826,1.23128 4.15925,1.23128 1.57788,0 3.88857,-0.87807 6.94199,-2.63091 3.05011,-1.75282 7.3315,-4.78973 12.83096,-9.11736 5.49947,-4.33089 12.48767,-10.13403 20.95142,-17.41932 5.80315,-4.99111 12.5933,-10.9395 20.2516,-17.71314 l 39.1465,-339.70209 h -0.26407 c -39.70108,19.01042 -151.23838,39.09038 -282.64439,39.09038 -131.38289,0 -242.92681,-20.07996 -282.63448,-39.09038 h -0.3268 l 29.74197,311.80207 c 1.57787,-5.37071 3.3307,-10.73482 5.27499,-16.07914 3.97439,-10.95269 8.57928,-21.66113 13.80145,-32.122 5.22548,-10.45754 10.91309,-20.34732 17.06285,-29.65612 6.14645,-9.30882 12.69232,-17.88148 19.62771,-25.71474 6.93869,-7.82997 14.05564,-14.56729 21.36404,-20.2087 7.3051,-5.63811 14.67953,-10.04821 22.12327,-13.2271 7.44704,-3.17554 14.82146,-4.76332 22.12657,-4.76332 8.41423,0 16.55449,2.30079 24.41415,6.89908 7.859668,4.60158 15.207695,12.05193 22.05725,22.34773 1.571271,2.3008 2.564879,4.62799 2.9775,6.98161 0.419222,2.35692 0.623892,4.57518 0.623892,6.65481 0,4.92837 -1.178454,8.82024 -3.535363,11.66571 -2.356909,2.84876 -5.156164,4.27149 -8.391143,4.27149 -2.960977,0 -5.710704,-1.56137 -8.255781,-4.68082 C 0.23118,567.9097 -2.61097,563.44677 -5.75681,557.637 c -2.9577,-5.25848 -6.21908,-9.06122 -9.77755,-11.41812 -3.56177,-2.35361 -7.42064,-3.53207 -11.58319,-3.53207 -6.47325,0 -13.38554,2.68369 -20.73685,8.05111 -7.35462,5.36742 -14.63662,12.46127 -21.84599,21.2782 -7.21597,8.81698 -14.12826,18.89491 -20.74015,30.23053 -6.61189,11.33561 -12.46125,22.94851 -17.54809,34.83209 -5.08683,11.8935 -9.13055,23.60873 -12.13445,35.1622 -3.00721,11.5535 -4.50916,21.93841 -4.50916,31.135 0,3.0732 0.20797,6.22567 0.62058,9.44413 0.41923,3.23168 1.20157,6.15967 2.36022,8.79387 1.15534,2.63088 2.72662,4.78641 4.71712,6.48645 1.9905,1.70661 4.50916,2.54505 7.55928,2.54505 3.42313,0 7.3051,-1.14874 11.65251,-3.44953 4.34411,-2.2909 8.85657,-5.30801 13.52417,-9.02823 4.67091,-3.73011 9.36493,-7.9422 14.08205,-12.65602 4.72042,-4.71051 9.11074,-9.47053 13.17757,-14.29329 4.06682,-4.81614 7.67481,-9.44416 10.81736,-13.88069 3.14585,-4.43983 5.50276,-8.30199 7.07733,-11.5898 l 12.90029,-38.60843 c 1.57127,-4.15926 3.62779,-7.11694 6.17286,-8.87308 2.54176,-1.74951 5.15615,-2.62758 7.83986,-2.62758 1.29069,0 2.58468,0.22116 3.88197,0.6569 1.29729,0.43902 2.44934,1.12234 3.46935,2.05322 1.02001,0.93088 1.82545,2.13574 2.42623,3.61458 0.60078,1.47885 0.89787,3.20526 0.89787,5.17265 0,5.25851 -0.46214,10.18358 -1.38642,14.78847 -0.92098,4.6049 -2.10273,9.09094 -3.53536,13.47796 -1.43594,4.37382 -3.03032,8.78395 -4.78645,13.22378 -1.75613,4.43654 -3.46934,9.06454 -5.13304,13.88729 -0.36641,0.54797 -1.03652,2.27108 -2.01031,5.16608 -0.97049,2.90816 -2.14565,6.54586 -3.53536,10.93287 -1.38642,4.38373 -2.89168,9.28241 -4.50916,14.70593 -1.61749,5.42355 -3.28119,10.9494 -4.99111,16.5908 -1.71651,5.64141 -3.35381,11.17718 -4.92508,16.59411 -1.57127,5.42023 -2.9841,10.32222 -4.22858,14.70263 -1.25107,4.37711 -2.28759,8.04782 -3.12274,11.00551 -0.83185,2.95771 -1.3402,4.71053 -1.52506,5.26508 -0.46544,1.74294 -1.20486,3.69383 -2.21827,5.83287 -1.02,2.13243 -2.22157,4.16586 -3.61128,6.08044 -1.38642,1.91457 -2.91148,3.50563 -4.57848,4.76003 -1.6637,1.26098 -3.37362,1.88817 -5.13305,1.88817 -2.95769,0 -5.10994,-0.9903 -6.44684,-2.95769 -1.34351,-1.97399 -2.01031,-5.58529 -2.01031,-10.84376 v -2.29751 c 0,-0.76584 0.0462,-1.59108 0.13534,-2.46255 0.0891,-1.75282 0.78564,-5.0406 2.08293,-9.86336 1.29729,-4.81615 2.84215,-10.25949 4.6478,-16.33992 1.80234,-6.08373 3.74663,-12.37875 5.82625,-18.90151 2.07963,-6.52277 3.95129,-12.34571 5.6183,-17.49857 -4.90528,5.47636 -10.21988,10.92959 -15.95371,16.34653 -5.73383,5.42353 -11.6096,10.29579 -17.61741,14.62672 -6.01111,4.33089 -12.06844,7.85966 -18.17198,10.59949 -6.10354,2.73323 -11.97601,4.10642 -17.61741,4.10642 -6.47325,0 -12.04533,-1.42933 -16.71623,-4.27477 -0.84506,-0.51496 -1.6373,-1.09594 -2.42954,-1.6736 l 18.8982,198.1257 10.99891,17.59429 c 32.28703,20.75336 114.68317,35.51213 211.48813,35.58143 88.1795,-0.069 164.38625,-12.3193 201.6809,-30.19088 L 317.7902,952.72978 344.92767,717.2401 c -2.24467,2.05653 -4.42334,4.06352 -6.51286,6.01111 -7.80026,7.25889 -15.13176,13.47137 -22.02425,18.67704 z M 104.54934,296.51842 c -156.44406,0 -283.26498,14.69932 -283.26498,32.83498 0,18.12576 126.82092,44.7846 283.26498,44.7846 156.46056,0 283.26166,-26.65884 283.26166,-44.7846 0.005,-18.13566 -126.8011,-32.83498 -283.26166,-32.83498 z m 50.51842,51.80581 c -18.11256,0 -34.22471,-5.47635 -34.22471,-10.19347 0,-1.80895 2.38661,-3.72684 6.3247,-5.40704 2.18526,-4.02392 13.82786,-7.10044 27.90001,-7.10044 13.85427,0 25.36815,2.98081 27.80757,6.9123 4.33091,1.72641 7.00802,3.7202 7.00802,5.59849 0,4.71381 -16.69973,10.19016 -34.81559,10.19016 z m 0,-5.77013 c 15.62691,0 28.30273,-3.78954 28.30273,-8.46706 0,-0.53146 -0.18154,-1.04972 -0.49516,-1.55477 -6.53926,-2.60779 -16.90108,-4.59498 -27.80757,-4.59498 -11.16397,0 -21.55549,2.08291 -27.90001,4.78643 -0.23767,0.44564 -0.39942,0.89787 -0.39942,1.36662 -0.005,4.67422 12.66591,8.46376 28.29943,8.46376 z M 361.47566,34.254371 323.62647,5.813 171.28224,166.11591 127.83785,333.87246 h 54.90544 L 225.2271,185.07023 Z" />
  </g>
</svg>
